<svg width="24" height="24" viewBox="0 0 24 24" fill="none" xmlns="http://www.w3.org/2000/svg">
<circle cx="12" cy="12" r="11.5" stroke="#27272A"/>
<path d="M17.0912 12.75C17.5055 12.75 17.8412 12.4142 17.8412 12C17.8412 11.5858 17.5055 11.25 17.0912 11.25L17.0912 12.75ZM6.37858 11.4697C6.08569 11.7626 6.08569 12.2374 6.37858 12.5303L11.1515 17.3033C11.4444 17.5962 11.9193 17.5962 12.2122 17.3033C12.5051 17.0104 12.5051 16.5355 12.2122 16.2426L7.96957 12L12.2122 7.75736C12.5051 7.46447 12.5051 6.98959 12.2122 6.6967C11.9193 6.40381 11.4444 6.40381 11.1515 6.6967L6.37858 11.4697ZM17.0912 11.25L6.90891 11.25L6.90891 12.75L17.0912 12.75L17.0912 11.25Z" fill="#27272A"/>
</svg>
