<svg width="24" height="24" viewBox="0 0 24 24" fill="none" xmlns="http://www.w3.org/2000/svg">
<path d="M23.5108 12C23.5108 18.3572 18.3572 23.5108 12 23.5108C5.64275 23.5108 0.489182 18.3572 0.489182 12C0.489182 5.64275 5.64275 0.489182 12 0.489182C18.3572 0.489182 23.5108 5.64275 23.5108 12Z" stroke="#27272A" stroke-width="0.978364"/>
<path d="M7.88125 15.0812C7.5947 15.3678 7.5947 15.8324 7.88125 16.119C8.16781 16.4055 8.63241 16.4055 8.91896 16.119L7.88125 15.0812ZM16.3339 8.4001C16.3339 7.99485 16.0054 7.66633 15.6001 7.66633L8.99615 7.66633C8.5909 7.66633 8.26238 7.99485 8.26238 8.4001C8.26238 8.80535 8.5909 9.13387 8.99615 9.13387L14.8663 9.13387L14.8663 15.0041C14.8663 15.4093 15.1949 15.7378 15.6001 15.7378C16.0054 15.7378 16.3339 15.4093 16.3339 15.0041L16.3339 8.4001ZM8.91896 16.119L16.119 8.91895L15.0813 7.88124L7.88125 15.0812L8.91896 16.119Z" fill="#27272A"/>
</svg>
