<svg width="19" height="19" viewBox="0 0 19 19" fill="none" xmlns="http://www.w3.org/2000/svg">
<path fill-rule="evenodd" clip-rule="evenodd" d="M7.12011 16.5057V13.9384C7.1201 13.2854 7.65246 12.7548 8.31206 12.7504H10.7282C11.3909 12.7504 11.9282 13.2823 11.9282 13.9384V16.5137C11.928 17.0681 12.375 17.5213 12.9349 17.5343H14.5456C16.1514 17.5343 17.453 16.2456 17.453 14.656V7.35256C17.4445 6.72719 17.1479 6.13994 16.6477 5.75793L11.1389 1.36472C10.1738 0.599779 8.80196 0.599779 7.83689 1.36472L2.35231 5.7659C1.85021 6.14637 1.55312 6.73459 1.54694 7.36053V14.656C1.54694 16.2456 2.84862 17.5343 4.45433 17.5343H6.06507C6.63886 17.5343 7.104 17.0738 7.104 16.5057" fill="#056CC7"/>
<path d="M7.12011 16.5057V13.9384C7.1201 13.2854 7.65246 12.7548 8.31206 12.7504H10.7282C11.3909 12.7504 11.9282 13.2823 11.9282 13.9384V13.9384V16.5137C11.928 17.0681 12.375 17.5213 12.9349 17.5343H14.5456C16.1514 17.5343 17.453 16.2456 17.453 14.656V14.656V7.35256C17.4445 6.72719 17.1479 6.13994 16.6477 5.75793L11.1389 1.36472C10.1738 0.599779 8.80196 0.599779 7.83689 1.36472L2.35231 5.7659C1.85021 6.14637 1.55312 6.73459 1.54694 7.36053V14.656C1.54694 16.2456 2.84862 17.5343 4.45433 17.5343H6.06507C6.63886 17.5343 7.104 17.0738 7.104 16.5057V16.5057" stroke="#056CC7" stroke-width="1.25574" stroke-linecap="round" stroke-linejoin="round"/>
</svg>
