
<svg width="19" height="19" viewBox="0 0 19 19" fill="none" xmlns="http://www.w3.org/2000/svg">
<path d="M7.12017 16.5057V13.9384C7.12016 13.2854 7.65253 12.7548 8.31212 12.7504H10.7282C11.391 12.7504 11.9282 13.2823 11.9282 13.9384V13.9384V16.5137C11.9281 17.0681 12.3751 17.5213 12.935 17.5343H14.5457C16.1514 17.5343 17.4531 16.2456 17.4531 14.656V14.656V7.35256C17.4445 6.72719 17.1479 6.13994 16.6477 5.75793L11.139 1.36472C10.1739 0.599779 8.80202 0.599779 7.83695 1.36472L2.35237 5.7659C1.85027 6.14637 1.55318 6.73459 1.547 7.36053V14.656C1.547 16.2456 2.84868 17.5343 4.45439 17.5343H6.06513C6.63892 17.5343 7.10406 17.0738 7.10406 16.5057V16.5057" stroke="#A1A1AA" stroke-width="1.25574" stroke-linecap="round" stroke-linejoin="round"/>
</svg>
