<svg width="19" height="19" viewBox="0 0 19 19" fill="none" xmlns="http://www.w3.org/2000/svg">
<path fill-rule="evenodd" clip-rule="evenodd" d="M15.4195 15.0813C12.861 17.64 9.07248 18.1929 5.97217 16.7591C5.51448 16.5748 5.13924 16.4259 4.78252 16.4259C3.7889 16.4318 2.55214 17.3952 1.90936 16.7532C1.26659 16.1103 2.23075 14.8726 2.23075 13.873C2.23075 13.5162 2.08773 13.1477 1.90348 12.6891C0.469002 9.58928 1.0226 5.7995 3.58109 3.24156C6.84715 -0.0256938 12.1534 -0.0256936 15.4195 3.24072C18.6914 6.51303 18.6856 11.8149 15.4195 15.0813Z" stroke="#A1A1AA" stroke-width="1.25574" stroke-linecap="round" stroke-linejoin="round"/>
<path d="M12.7979 9.50843H12.8054" stroke="#A1A1AA" stroke-width="1.67433" stroke-linecap="round" stroke-linejoin="round"/>
<path d="M9.44118 9.50843H9.44872" stroke="#A1A1AA" stroke-width="1.67433" stroke-linecap="round" stroke-linejoin="round"/>
<path d="M6.08522 9.50843H6.09276" stroke="#A1A1AA" stroke-width="1.67433" stroke-linecap="round" stroke-linejoin="round"/>
</svg>
