<svg width="10" height="13" viewBox="0 0 10 13" fill="none" xmlns="http://www.w3.org/2000/svg">
<path d="M4.99998 9.3999C6.32358 9.3999 7.39998 8.3235 7.39998 6.9999V3.3999C7.39998 2.0697 6.32898 0.987305 5.01258 0.987305C4.97034 0.987558 4.92828 0.99259 4.88718 1.0023C4.27113 1.03217 3.69013 1.29772 3.2644 1.744C2.83867 2.19027 2.60079 2.78313 2.59998 3.3999V6.9999C2.59998 8.3235 3.67638 9.3999 4.99998 9.3999Z" fill="white"/>
<path d="M4.39995 11.7586V13H5.59995V11.7586C7.96335 11.4616 9.79995 9.4438 9.79995 7H8.59995C8.59995 8.9854 6.98535 10.6 4.99995 10.6C3.01455 10.6 1.39995 8.9854 1.39995 7H0.199951C0.199951 9.4432 2.03655 11.4616 4.39995 11.7586Z" fill="white"/>
</svg>
