<svg width="17" height="18" viewBox="0 0 17 18" fill="none" xmlns="http://www.w3.org/2000/svg">
<path fill-rule="evenodd" clip-rule="evenodd" d="M4.99245 0.791016H12.0087C14.5947 0.791016 16.0346 2.28117 16.0346 4.83451V13.4824C16.0346 16.0776 14.5947 17.5343 12.0087 17.5343H4.99245C2.44748 17.5343 0.965698 16.0776 0.965698 13.4824V4.83451C0.965698 2.28117 2.44748 0.791016 4.99245 0.791016ZM5.21862 4.69212V4.68375H7.7209C8.08171 4.68375 8.37472 4.97675 8.37472 5.3359C8.37472 5.70508 8.08171 5.99809 7.7209 5.99809H5.21862C4.8578 5.99809 4.56563 5.70508 4.56563 5.3451C4.56563 4.98512 4.8578 4.69212 5.21862 4.69212ZM5.21862 9.78224H11.782C12.142 9.78224 12.435 9.48923 12.435 9.12925C12.435 8.76927 12.142 8.47542 11.782 8.47542H5.21862C4.8578 8.47542 4.56563 8.76927 4.56563 9.12925C4.56563 9.48923 4.8578 9.78224 5.21862 9.78224ZM5.21867 13.608H11.782C12.1161 13.5745 12.368 13.289 12.368 12.955C12.368 12.6118 12.1161 12.3271 11.782 12.2937H5.21867C4.96752 12.2685 4.72474 12.3857 4.59079 12.6034C4.45685 12.8127 4.45685 13.089 4.59079 13.3066C4.72474 13.5159 4.96752 13.6415 5.21867 13.608Z" fill="#056CC7"/>
<path d="M5.21862 4.68375V4.43375H4.96862V4.68375H5.21862ZM5.21862 4.69212V4.94212H5.46862V4.69212H5.21862ZM11.782 13.608V13.858H11.7945L11.807 13.8568L11.782 13.608ZM5.21867 13.608V13.358H5.20207L5.18563 13.3602L5.21867 13.608ZM11.782 12.2937L11.807 12.0449L11.7945 12.0437H11.782V12.2937ZM5.21867 12.2937L5.19379 12.5424L5.2062 12.5437H5.21867V12.2937ZM4.59079 12.6034L4.80139 12.7382L4.80371 12.7344L4.59079 12.6034ZM4.59079 13.3066L4.37785 13.4377L4.38023 13.4414L4.59079 13.3066ZM12.0087 0.541016H4.99245V1.04102H12.0087V0.541016ZM16.2846 4.83451C16.2846 3.51177 15.9109 2.43043 15.1693 1.67958C14.4271 0.928223 13.3494 0.541016 12.0087 0.541016V1.04102C13.254 1.04102 14.1892 1.39888 14.8136 2.03094C15.4384 2.6635 15.7846 3.60391 15.7846 4.83451H16.2846ZM16.2846 13.4824V4.83451H15.7846V13.4824H16.2846ZM12.0087 17.7843C13.3479 17.7843 14.426 17.4063 15.1689 16.6576C15.9115 15.9093 16.2846 14.8251 16.2846 13.4824H15.7846C15.7846 14.7349 15.4379 15.6767 14.814 16.3055C14.1904 16.9339 13.2556 17.2843 12.0087 17.2843V17.7843ZM4.99245 17.7843H12.0087V17.2843H4.99245V17.7843ZM0.715698 13.4824C0.715698 14.827 1.1004 15.9108 1.84793 16.6583C2.59542 17.4058 3.67288 17.7843 4.99245 17.7843V17.2843C3.76705 17.2843 2.83113 16.9344 2.20149 16.3048C1.57188 15.6752 1.2157 14.733 1.2157 13.4824H0.715698ZM0.715698 4.83451V13.4824H1.2157V4.83451H0.715698ZM4.99245 0.541016C3.67136 0.541016 2.59429 0.928721 1.84753 1.67888C1.10093 2.42889 0.715698 3.50986 0.715698 4.83451H1.2157C1.2157 3.60581 1.57136 2.66504 2.20189 2.03163C2.83226 1.39839 3.76857 1.04102 4.99245 1.04102V0.541016ZM4.96862 4.68375V4.69212H5.46862V4.68375H4.96862ZM7.7209 4.43375H5.21862V4.93375H7.7209V4.43375ZM8.62472 5.3359C8.62472 4.83826 8.21937 4.43375 7.7209 4.43375V4.93375C7.94406 4.93375 8.12472 5.11524 8.12472 5.3359H8.62472ZM7.7209 6.24809C8.22186 6.24809 8.62472 5.84108 8.62472 5.3359H8.12472C8.12472 5.56909 7.94157 5.74809 7.7209 5.74809V6.24809ZM5.21862 6.24809H7.7209V5.74809H5.21862V6.24809ZM4.31563 5.3451C4.31563 5.84295 4.71952 6.24809 5.21862 6.24809V5.74809C4.99608 5.74809 4.81563 5.56722 4.81563 5.3451H4.31563ZM5.21862 4.44212C4.71952 4.44212 4.31563 4.84726 4.31563 5.3451H4.81563C4.81563 5.12299 4.99608 4.94212 5.21862 4.94212V4.44212ZM11.782 9.53224H5.21862V10.0322H11.782V9.53224ZM12.185 9.12925C12.185 9.35116 12.0039 9.53224 11.782 9.53224V10.0322C12.28 10.0322 12.685 9.6273 12.685 9.12925H12.185ZM11.782 8.72542C12.0035 8.72542 12.185 8.90692 12.185 9.12925H12.685C12.685 8.63161 12.2804 8.22542 11.782 8.22542V8.72542ZM5.21862 8.72542H11.782V8.22542H5.21862V8.72542ZM4.81563 9.12925C4.81563 8.90671 4.9965 8.72542 5.21862 8.72542V8.22542C4.7191 8.22542 4.31563 8.63182 4.31563 9.12925H4.81563ZM5.21862 9.53224C4.99608 9.53224 4.81563 9.35137 4.81563 9.12925H4.31563C4.31563 9.62709 4.71952 10.0322 5.21862 10.0322V9.53224ZM11.782 13.358H5.21867V13.858H11.782V13.358ZM12.118 12.955C12.118 13.1636 11.9604 13.3389 11.7571 13.3593L11.807 13.8568C12.2717 13.8102 12.618 13.4145 12.618 12.955H12.118ZM11.7571 12.5424C11.9587 12.5626 12.118 12.7354 12.118 12.955H12.618C12.618 12.4881 12.2734 12.0917 11.807 12.0449L11.7571 12.5424ZM5.21867 12.5437H11.782V12.0437H5.21867V12.5437ZM4.80371 12.7344C4.88669 12.5996 5.03641 12.5267 5.19379 12.5424L5.24354 12.0449C4.89862 12.0104 4.56279 12.1719 4.37788 12.4724L4.80371 12.7344ZM4.80371 13.1756C4.71821 13.0367 4.72099 12.8638 4.80136 12.7382L4.38023 12.4686C4.1927 12.7617 4.19549 13.1413 4.37788 13.4377L4.80371 13.1756ZM5.18563 13.3602C5.03901 13.3798 4.8876 13.3066 4.80136 13.1719L4.38023 13.4414C4.56188 13.7252 4.89603 13.9032 5.25171 13.8558L5.18563 13.3602Z" fill="#056CC7"/>
</svg>
