<svg width="17" height="19" viewBox="0 0 17 19" fill="none" xmlns="http://www.w3.org/2000/svg">
<path d="M5.21851 4.68375V4.18375H4.71851V4.68375H5.21851ZM5.21851 4.69212V5.19212H5.71851V4.69212H5.21851ZM11.7819 13.608V14.108H11.8069L11.8318 14.1055L11.7819 13.608ZM5.21856 13.608V13.108H5.18537L5.15247 13.1124L5.21856 13.608ZM11.7819 12.2937L11.8318 11.7962L11.8069 11.7937H11.7819V12.2937ZM5.21856 12.2937L5.1688 12.7912L5.19362 12.7937H5.21856V12.2937ZM4.59068 12.6034L5.01188 12.873L5.01651 12.8655L4.59068 12.6034ZM4.59068 13.3066L4.16479 13.5687L4.16955 13.5762L4.59068 13.3066ZM12.0086 0.291016H4.99234V1.29102H12.0086V0.291016ZM16.5345 4.83451C16.5345 3.46569 16.1471 2.3139 15.347 1.50389C14.546 0.692893 13.3969 0.291016 12.0086 0.291016V1.29102C13.2063 1.29102 14.0702 1.63421 14.6356 2.20663C15.202 2.78003 15.5345 3.64999 15.5345 4.83451H16.5345ZM16.5345 13.4824V4.83451H15.5345V13.4824H16.5345ZM12.0086 18.0343C13.3939 18.0343 14.5437 17.6425 15.3462 16.8337C16.1481 16.0255 16.5345 14.8702 16.5345 13.4824H15.5345C15.5345 14.6898 15.2009 15.5604 14.6364 16.1294C14.0724 16.6977 13.2093 17.0343 12.0086 17.0343V18.0343ZM4.99234 18.0343H12.0086V17.0343H4.99234V18.0343ZM0.465588 13.4824C0.465588 14.874 0.864554 16.0286 1.67105 16.8351C2.47745 17.6415 3.62568 18.0343 4.99234 18.0343V17.0343C3.81402 17.0343 2.94888 16.6987 2.37815 16.128C1.80751 15.5573 1.46559 14.686 1.46559 13.4824H0.465588ZM0.465588 4.83451V13.4824H1.46559V4.83451H0.465588ZM4.99234 0.291016C3.62265 0.291016 2.47519 0.693889 1.67024 1.50251C0.865602 2.31082 0.465588 3.46189 0.465588 4.83451H1.46559C1.46559 3.65379 1.80646 2.78311 2.37896 2.20801C2.95114 1.63322 3.81706 1.29102 4.99234 1.29102V0.291016ZM4.71851 4.68375V4.69212H5.71851V4.68375H4.71851ZM7.72079 4.18375H5.21851V5.18375H7.72079V4.18375ZM8.87461 5.3359C8.87461 4.69978 8.35691 4.18375 7.72079 4.18375V5.18375C7.8063 5.18375 7.87461 5.25373 7.87461 5.3359H8.87461ZM7.72079 6.49809C8.36189 6.49809 8.87461 5.97707 8.87461 5.3359H7.87461C7.87461 5.4331 7.80132 5.49809 7.72079 5.49809V6.49809ZM5.21851 6.49809H7.72079V5.49809H5.21851V6.49809ZM4.06552 5.3451C4.06552 5.98081 4.58113 6.49809 5.21851 6.49809V5.49809C5.13425 5.49809 5.06552 5.42936 5.06552 5.3451H4.06552ZM5.21851 4.19212C4.58113 4.19212 4.06552 4.7094 4.06552 5.3451H5.06552C5.06552 5.26085 5.13425 5.19212 5.21851 5.19212V4.19212ZM11.7819 9.28224H5.21851V10.2822H11.7819V9.28224ZM11.9349 9.12925C11.9349 9.21309 11.8657 9.28224 11.7819 9.28224V10.2822C12.418 10.2822 12.9349 9.76537 12.9349 9.12925H11.9349ZM11.7819 8.97542C11.8649 8.97542 11.9349 9.04458 11.9349 9.12925H12.9349C12.9349 8.49396 12.4188 7.97542 11.7819 7.97542V8.97542ZM5.21851 8.97542H11.7819V7.97542H5.21851V8.97542ZM5.06552 9.12925C5.06552 9.04416 5.13508 8.97542 5.21851 8.97542V7.97542C4.5803 7.97542 4.06552 8.49438 4.06552 9.12925H5.06552ZM5.21851 9.28224C5.13425 9.28224 5.06552 9.2135 5.06552 9.12925H4.06552C4.06552 9.76495 4.58113 10.2822 5.21851 10.2822V9.28224ZM11.7819 13.108H5.21856V14.108H11.7819V13.108ZM11.8679 12.955C11.8679 13.0381 11.8047 13.1032 11.732 13.1105L11.8318 14.1055C12.4272 14.0458 12.8679 13.54 12.8679 12.955H11.8679ZM11.732 12.7912C11.8012 12.7981 11.8679 12.8591 11.8679 12.955H12.8679C12.8679 12.3645 12.4307 11.8562 11.8318 11.7962L11.732 12.7912ZM5.21856 12.7937H11.7819V11.7937H5.21856V12.7937ZM5.01651 12.8655C5.04853 12.8134 5.1052 12.7848 5.1688 12.7912L5.26831 11.7961C4.82961 11.7523 4.40072 11.9581 4.16485 12.3414L5.01651 12.8655ZM5.01651 13.0446C4.97946 12.9844 4.98502 12.9148 5.01182 12.8729L4.16955 12.3339C3.92845 12.7106 3.93401 13.1936 4.16485 13.5687L5.01651 13.0446ZM5.15247 13.1124C5.11039 13.118 5.05036 13.0973 5.01182 13.0371L4.16955 13.5762C4.3989 13.9345 4.82443 14.165 5.28464 14.1036L5.15247 13.1124Z" fill="#A1A1AA"/>
</svg>
