<svg width="20" height="20" viewBox="0 0 20 20" fill="none" xmlns="http://www.w3.org/2000/svg">
<path d="M10 0C4.486 0 0 4.486 0 10C0 15.514 4.486 20 10 20C15.514 20 20 15.514 20 10C20 4.486 15.514 0 10 0ZM10 18C5.589 18 2 14.411 2 10C2 5.589 5.589 2 10 2C14.411 2 18 5.589 18 10C18 14.411 14.411 18 10 18Z" fill="#52525B"/>
<path d="M12.8289 12.8278C12.4634 13.1922 12.0317 13.4834 11.5569 13.6858C10.7022 14.0467 9.74871 14.0993 8.85946 13.8349C7.97022 13.5704 7.20049 13.0051 6.68193 12.2358L5.02393 13.3548C5.45636 13.993 6.00652 14.5428 6.64493 14.9748C7.29458 15.4142 8.02451 15.721 8.79293 15.8778C9.58972 16.0404 10.4111 16.0404 11.2079 15.8778C11.9763 15.7208 12.7062 15.414 13.3559 14.9748C13.6689 14.7628 13.9679 14.5168 14.2419 14.2438C14.5139 13.9728 14.7619 13.6728 14.9759 13.3548L13.3179 12.2358C13.1742 12.4483 13.0105 12.6466 12.8289 12.8278Z" fill="#52525B"/>
<path d="M13.493 9.986C14.3176 9.986 14.986 9.31756 14.986 8.493C14.986 7.66844 14.3176 7 13.493 7C12.6684 7 12 7.66844 12 8.493C12 9.31756 12.6684 9.986 13.493 9.986Z" fill="#52525B"/>
<path d="M6.5 10C7.32843 10 8 9.32843 8 8.5C8 7.67157 7.32843 7 6.5 7C5.67157 7 5 7.67157 5 8.5C5 9.32843 5.67157 10 6.5 10Z" fill="#52525B"/>
</svg>
