<svg width="39" height="39" viewBox="0 0 39 39" fill="none" xmlns="http://www.w3.org/2000/svg">
<path opacity="0.25" fill-rule="evenodd" clip-rule="evenodd" d="M1 19.5C1 29.7173 9.28273 38 19.5 38C29.7173 38 38 29.7173 38 19.5C38 9.28273 29.7173 1 19.5 1C9.28273 1 1 9.28273 1 19.5ZM19.5 0C8.73045 0 0 8.73045 0 19.5C0 30.2696 8.73045 39 19.5 39C30.2696 39 39 30.2696 39 19.5C39 8.73045 30.2696 0 19.5 0Z" fill="#27272A"/>
<g clip-path="url(#clip0_482_2910)">
<path fill-rule="evenodd" clip-rule="evenodd" d="M26.9915 12.58C25.122 10.7081 22.6357 9.67673 19.9865 9.67578C14.5277 9.67578 10.085 14.118 10.0831 19.5783C10.0821 21.3238 10.5385 23.0275 11.4051 24.529L10 29.6612L15.2499 28.2841C16.6963 29.0733 18.325 29.4888 19.9823 29.4893H19.9865C25.4444 29.4893 29.8876 25.0466 29.8895 19.5863C29.8904 16.94 28.8614 14.4523 26.9915 12.5804V12.58ZM19.9865 27.8169H19.9832C18.5064 27.8164 17.0577 27.4194 15.7936 26.6696L15.4931 26.4911L12.3776 27.3083L13.209 24.2707L13.0134 23.9592C12.1895 22.6487 11.7541 21.1338 11.755 19.5788C11.7569 15.0406 15.4494 11.3482 19.9899 11.3482C22.1884 11.3491 24.255 12.2063 25.8091 13.7623C27.3633 15.3179 28.2185 17.3864 28.2176 19.5854C28.2156 24.124 24.5233 27.8164 19.9865 27.8164V27.8169ZM24.5014 21.6524C24.254 21.5285 23.0375 20.9301 22.8104 20.8475C22.5835 20.7649 22.4187 20.7236 22.2539 20.9715C22.0892 21.2194 21.6148 21.7768 21.4704 21.9416C21.3261 22.1068 21.1817 22.1273 20.9343 22.0033C20.687 21.8794 19.8897 21.6182 18.9443 20.7753C18.2087 20.1191 17.712 19.309 17.5677 19.0611C17.4233 18.8133 17.5525 18.6794 17.6759 18.5564C17.787 18.4453 17.9233 18.2672 18.0472 18.1229C18.1712 17.9785 18.212 17.875 18.2946 17.7102C18.3773 17.545 18.336 17.4006 18.2743 17.2767C18.2125 17.1527 17.7177 15.9347 17.5112 15.4395C17.3103 14.957 17.1061 15.0226 16.9546 15.0145C16.8103 15.0074 16.6455 15.006 16.4803 15.006C16.315 15.006 16.0472 15.0677 15.8202 15.3156C15.5933 15.5634 14.9541 16.1622 14.9541 17.3797C14.9541 18.5972 15.8407 19.7744 15.9646 19.9396C16.0885 20.1049 17.7096 22.604 20.1917 23.6762C20.7819 23.9312 21.243 24.0836 21.6024 24.1976C22.1951 24.3861 22.7345 24.3595 23.1609 24.2959C23.6362 24.2247 24.6249 23.6971 24.8309 23.1192C25.037 22.5413 25.037 22.0456 24.9753 21.9425C24.9136 21.8395 24.7483 21.7773 24.5009 21.6533L24.5014 21.6524Z" fill="#27272A"/>
</g>
<defs>
<clipPath id="clip0_482_2910">
<rect width="19.8895" height="20" fill="white" transform="translate(10 9.67578)"/>
</clipPath>
</defs>
</svg>
